<?xml version="1.0" encoding="utf-8"?>
<svg width="147px" height="22px" viewBox="0 0 147 22" version="1.1" xmlns:xlink="http://www.w3.org/1999/xlink" xmlns="http://www.w3.org/2000/svg">
  <g id="ACTIVEBOX">
    <g id="ACTIVE" fill="#656880">
      <path d="M33.87 7.92542L37.3231 7.92542Q37.0369 5.82031 35.929 4.33842Q34.821 2.85653 33.1175 2.07173Q31.414 1.28693 29.3182 1.28693Q26.853 1.28693 24.891 2.44105Q22.929 3.59517 21.7933 5.76953Q20.6577 7.94389 20.6577 11Q20.6577 14.0469 21.7841 16.2212Q22.9105 18.3956 24.8679 19.5543Q26.8253 20.7131 29.3182 20.7131Q31.571 20.7131 33.2745 19.8359Q34.978 18.9588 36.0213 17.4815Q37.0646 16.0043 37.3231 14.1946L33.87 14.1761Q33.5469 15.8381 32.305 16.7383Q31.0632 17.6385 29.3643 17.6385Q27.0653 17.6385 25.5834 15.9442Q24.1015 14.25 24.1015 11Q24.1015 7.79616 25.5788 6.07883Q27.0561 4.3615 29.3736 4.3615Q31.1001 4.36151 32.3373 5.29403Q33.5746 6.22656 33.87 7.92542ZM1.09302 20.4545L4.74927 20.4545L6.30964 15.7919L13.419 15.7919L14.9886 20.4545L18.6449 20.4545L11.9787 1.54545L7.74998 1.54545L1.09302 20.4545ZM39.6406 4.4169L39.6406 1.54545L54.7273 1.54545L54.7273 4.4169L48.8828 4.4169L48.8828 20.4545L45.4851 20.4545L45.4851 4.4169L39.6406 4.4169ZM57.6264 20.4545L61.0518 20.4545L61.0518 1.54545L57.6264 1.54545L57.6264 20.4545ZM67.3025 1.54545L72.2237 16.429L72.4176 16.429L77.3295 1.54545L81.0966 1.54545L74.4304 20.4545L70.2017 20.4545L63.5447 1.54545L67.3025 1.54545ZM95.8878 1.54545L83.5895 1.54545L83.5895 20.4545L95.9616 20.4545L95.9616 17.5831L87.0149 17.5831L87.0149 12.4219L95.2507 12.4219L95.2507 9.55042L87.0149 9.55042L87.0149 4.4169L95.8878 4.4169L95.8878 1.54545ZM12.4957 13.0405L7.23294 13.0405L9.79047 5.42329L9.93819 5.42329L12.4957 13.0405Z" />
    </g>
    <g id="BOX" fill="#FFFFFF">
      <path d="M113.07 11.3545Q113.07 13.3305 113.759 15.0465Q114.448 16.7625 115.696 18.0235Q116.944 19.2845 118.634 19.9995Q120.324 20.7145 122.3 20.7145Q124.302 20.7145 125.979 19.9995Q127.656 19.2845 128.904 18.0235Q130.152 16.7625 130.841 15.0465Q131.53 13.3305 131.53 11.3545Q131.53 9.35254 130.841 7.64954Q130.152 5.94654 128.904 4.68554Q127.656 3.42455 125.979 2.70954Q124.302 1.99454 122.3 1.99454Q120.324 1.99454 118.634 2.70954Q116.944 3.42454 115.696 4.68554Q114.448 5.94654 113.759 7.64954Q113.07 9.35254 113.07 11.3545ZM106.986 10.6005Q106.827 10.5598 106.663 10.5248Q106.904 10.4538 107.129 10.3665Q108.338 9.89854 109.014 8.98854Q109.69 8.07854 109.69 6.80454Q109.69 5.24454 109.014 4.24354Q108.338 3.24254 107.129 2.74854Q105.92 2.25454 104.282 2.25454L99.602 2.25454L99.602 20.4545L104.542 20.4545Q106.31 20.4545 107.701 19.8695Q109.092 19.2845 109.911 18.1015Q110.73 16.9185 110.73 15.1245Q110.73 13.8765 110.262 12.9665Q109.794 12.0565 108.949 11.4715Q108.104 10.8865 106.986 10.6005ZM139.876 8.98854L143.75 2.25454L146.35 2.25454L140.968 10.9125L146.74 20.4545L144.14 20.4545L139.85 12.8365L135.43 20.4545L132.83 20.4545L138.758 10.9125L133.48 2.25454L136.08 2.25454L139.876 8.98854ZM104.282 9.61254L101.812 9.61254L101.812 4.20454L104.282 4.20454Q105.66 4.20454 106.57 4.91954Q107.48 5.63454 107.48 6.93454Q107.48 7.79254 107.064 8.39054Q106.648 8.98854 105.92 9.30054Q105.192 9.61254 104.282 9.61254ZM115.41 11.3545Q115.41 9.30054 116.307 7.68854Q117.204 6.07654 118.764 5.14054Q120.324 4.20455 122.3 4.20454Q124.302 4.20454 125.849 5.14054Q127.396 6.07654 128.293 7.68854Q129.19 9.30054 129.19 11.3545Q129.19 13.4085 128.293 15.0205Q127.396 16.6325 125.849 17.5685Q124.302 18.5045 122.3 18.5045Q120.324 18.5045 118.764 17.5685Q117.204 16.6325 116.307 15.0205Q115.41 13.4085 115.41 11.3545ZM104.542 11.5365L101.812 11.5365L101.812 18.5045L104.542 18.5045Q105.712 18.5045 106.609 18.0885Q107.506 17.6725 108.013 16.8925Q108.52 16.1125 108.52 14.9945Q108.52 14.1625 108.234 13.5125Q107.948 12.8625 107.415 12.4205Q106.882 11.9785 106.154 11.7575Q105.426 11.5365 104.542 11.5365Z" />
    </g>
  </g>
</svg>