<?xml version="1.0" encoding="utf-8"?>
<svg width="50px" height="50px" viewBox="0 0 50 50" version="1.1" xmlns:xlink="http://www.w3.org/1999/xlink" xmlns="http://www.w3.org/2000/svg">
  <defs>
    <path d="M0 0L50 0L50 50L0 50L0 0L0 0L0 0Z" id="path_1" />
    <clipPath id="mask_1">
      <use xlink:href="#path_1" />
    </clipPath>
  </defs>
  <g id="facebook">
    <g id="facebook">
      <g id="Facebook-icon">
        <path d="M0 0L50 0L50 50L0 50L0 0L0 0L0 0Z" id="Background" fill="none" fill-rule="evenodd" stroke="none" />
        <g id="Mask-group">
          <path d="M0 0L50 0L50 50L0 50L0 0L0 0L0 0Z" id="path_1#1" fill="none" fill-rule="evenodd" stroke="none" />
          <g id="Mask-group">
            <path d="M0 0L50 0L50 50L0 50L0 0L0 0L0 0Z" id="path_1" fill="none" fill-rule="evenodd" stroke="none" />
            <g clip-path="url(#mask_1)">
              <g id="Group" transform="translate(16.835976 7.8125)">
                <g id="Group">
                  <path d="M16.3281 9.78906L10.7813 9.78906L10.7813 6.15627C10.7813 4.78908 11.6797 4.47658 12.3438 4.47658C12.9688 4.47658 16.2891 4.47658 16.2891 4.47658L16.3281 0L12.3438 0L10.664 0C4.6875 0 3.47656 2.91408 3.47656 5.8047L3.47656 9.82813L0 9.82813L0 16L3.47656 16C3.47656 23.9688 3.47656 33.5781 3.47656 33.5781L10.7813 33.5781C10.7813 33.5781 10.7813 23.8906 10.7813 16L15.7031 16L16.3281 9.78906L16.3281 9.78906L16.3281 9.78906L16.3281 9.78906Z" transform="translate(0 1.1875)" id="Shape" fill="#FFFFFF" fill-rule="evenodd" stroke="none" />
                  <path d="M0 0C0 0 15.625 30.4688 15.625 30.4688" transform="translate(6.6015244 3.90625)" id="Shape#2" fill="#444B54" fill-rule="evenodd" stroke="none" />
                  <path d="M3.125 0C3.125 0 0 0 0 0" transform="translate(8.164024 0)" id="Shape#3" fill="#444B54" fill-rule="evenodd" stroke="none" />
                </g>
              </g>
            </g>
          </g>
        </g>
      </g>
    </g>
  </g>
</svg>