<?xml version="1.0" encoding="utf-8"?>
<svg width="21px" height="21px" viewBox="0 0 21 21" version="1.1" xmlns:xlink="http://www.w3.org/1999/xlink" xmlns="http://www.w3.org/2000/svg">
  <defs>
    <path d="M0 0L21 0L21 21L0 21L0 0Z" id="path_1" />
    <clipPath id="mask_1">
      <use xlink:href="#path_1" />
    </clipPath>
  </defs>
  <g id="Instagram-icon">
    <path d="M0 0L21 0L21 21L0 21L0 0Z" id="Background" fill="none" fill-rule="evenodd" stroke="none" />
    <g clip-path="url(#mask_1)">
      <path d="M4.16667 0C1.86583 0 0 1.86583 0 4.16667L0 10.8333C0 13.1342 1.86583 15 4.16667 15L10.8333 15C13.1342 15 15 13.1342 15 10.8333L15 4.16667C15 1.86583 13.1342 0 10.8333 0L4.16667 0L4.16667 0ZM12.5001 1.66675C12.9601 1.66675 13.3334 2.04008 13.3334 2.50008C13.3334 2.96008 12.9601 3.33341 12.5001 3.33341C12.0401 3.33341 11.6667 2.96008 11.6667 2.50008C11.6667 2.04008 12.0401 1.66675 12.5001 1.66675L12.5001 1.66675ZM7.49992 3.33325C9.80075 3.33325 11.6666 5.19909 11.6666 7.49992C11.6666 9.80075 9.80075 11.6666 7.49992 11.6666C5.19909 11.6666 3.33325 9.80075 3.33325 7.49992C3.33325 5.19909 5.19909 3.33325 7.49992 3.33325L7.49992 3.33325ZM7.5 5C6.11929 5 5 6.11929 5 7.5C5 8.88071 6.11929 10 7.5 10C8.88071 10 10 8.88071 10 7.5C10 6.11929 8.88071 5 7.5 5L7.5 5Z" transform="translate(3 3)" id="Shape" fill="#FFFFFF" fill-rule="evenodd" stroke="none" />
    </g>
  </g>
</svg>