<?xml version="1.0" encoding="utf-8"?>
<svg width="11px" height="11px" viewBox="0 0 11 11" version="1.1" xmlns:xlink="http://www.w3.org/1999/xlink" xmlns="http://www.w3.org/2000/svg">
  <defs>
    <path d="M0 0L11 0L11 11L0 11L0 0Z" id="path_1" />
    <clipPath id="mask_1">
      <use xlink:href="#path_1" />
    </clipPath>
  </defs>
  <g id="Twitter-icon-2">
    <path d="M0 0L11 0L11 11L0 11L0 0Z" id="Background" fill="none" fill-rule="evenodd" stroke="none" />
    <g clip-path="url(#mask_1)">
      <path d="M9 0.825921C8.66309 0.968951 8.32471 1.07692 7.94971 1.11338C8.32471 0.897436 8.625 0.538462 8.77441 0.143029C8.39941 0.358974 8.02441 0.502003 7.61279 0.57492C7.23779 0.215946 6.75 0 6.22559 0C5.21191 0 4.38721 0.789463 4.38721 1.75841C4.38721 1.90284 4.38721 2.04587 4.42529 2.15385C2.88721 2.08233 1.53809 1.39944 0.637207 0.322516C0.449707 0.57492 0.375 0.897436 0.375 1.21995C0.375 1.83133 0.711914 2.36979 1.19971 2.69231C0.899414 2.65585 0.600586 2.58434 0.375 2.47636C0.375 2.47636 0.375 2.47636 0.375 2.51282C0.375 3.3738 1.01221 4.09175 1.83691 4.23618C1.6875 4.27123 1.53809 4.30769 1.35059 4.30769C1.23779 4.30769 1.125 4.30769 1.01221 4.27123C1.23779 4.98918 1.91309 5.49259 2.73779 5.49259C2.10059 5.95954 1.3125 6.24559 0.449707 6.24559C0.300293 6.24559 0.149414 6.24559 0 6.21054C0.824707 6.71254 1.80029 7 2.8125 7C6.22559 7 8.0625 4.30769 8.0625 1.97436C8.0625 1.90284 8.0625 1.83133 8.0625 1.75841C8.4375 1.50741 8.73779 1.1849 9 0.825921" transform="translate(1 1.854187)" id="Shape" fill="#956666" fill-rule="evenodd" stroke="none" />
    </g>
  </g>
</svg>